HIERARCHY
ROOT Hips
{
	OFFSET 0.000000 0.000000 0.000000 
	CHANNELS 6 Xposition Yposition Zposition Zrotation Yrotation Xrotation
	JOINT LeftUpLeg
	{
		OFFSET 1.363060 -1.794630 0.839290 
		CHANNELS 3 Zrotation Yrotation Xrotation
		JOINT LeftLeg
		{
			OFFSET 2.448110 -6.726130 0.000000 
			CHANNELS 3 Zrotation Yrotation Xrotation
			JOINT LeftFoot
			{
				OFFSET 2.562200 -7.039590 0.000000 
				CHANNELS 3 Zrotation Yrotation Xrotation
				JOINT LeftToeBase
				{
					OFFSET 0.157640 -0.433110 2.322550 
					CHANNELS 3 Zrotation Yrotation Xrotation
					End Site
					{
						OFFSET 0.000000 0.000000 0.000000 
					}
				}
			}
		}
	}
	JOINT RightUpLeg
	{
		OFFSET -1.305520 -1.794630 0.839290 
		CHANNELS 3 Zrotation Yrotation Xrotation
		JOINT RightLeg
		{
			OFFSET -2.542530 -6.985550 0.000000 
			CHANNELS 3 Zrotation Yrotation Xrotation
			JOINT RightFoot
			{
				OFFSET -2.568260 -7.056230 0.000000 
				CHANNELS 3 Zrotation Yrotation Xrotation
				JOINT RightToeBase
				{
					OFFSET -0.164730 -0.452590 2.363150 
					CHANNELS 3 Zrotation Yrotation Xrotation
					End Site
					{
						OFFSET 0.000000 0.000000 0.000000 
					}
				}
			}
		}
	}
	JOINT Spine
	{
		OFFSET 0.028270 2.035590 -0.193380 
		CHANNELS 3 Zrotation Yrotation Xrotation
		JOINT Spine1
		{
			OFFSET 0.056720 2.048850 -0.042750 
			CHANNELS 3 Zrotation Yrotation Xrotation
			JOINT Neck1
			{
				OFFSET -0.054170 1.746240 0.172020 
				CHANNELS 3 Zrotation Yrotation Xrotation
				JOINT Head
				{
					OFFSET 0.104070 1.761360 -0.123970 
					CHANNELS 3 Zrotation Yrotation Xrotation
					End Site
					{
						OFFSET 0.000000 0.000000 0.000000 
					}
				}
			}
			JOINT LeftArm
			{
				OFFSET 3.362410 1.200890 -0.311210 
				CHANNELS 3 Zrotation Yrotation Xrotation
				JOINT LeftForeArm
				{
					OFFSET 4.983000 -0.000000 -0.000000 
					CHANNELS 3 Zrotation Yrotation Xrotation
					JOINT LeftHand
					{
						OFFSET 3.483560 -0.000000 -0.000000 
						CHANNELS 3 Zrotation Yrotation Xrotation
						JOINT LeftHandIndex1
						{
							OFFSET 0.715260 -0.000000 -0.000000 
							CHANNELS 3 Zrotation Yrotation Xrotation
							End Site
							{
								OFFSET 0.000000 0.000000 0.000000 
							}
						}
					}
				}
			}
			JOINT RightArm
			{
				OFFSET -3.136600 1.374050 -0.404650 
				CHANNELS 3 Zrotation Yrotation Xrotation
				JOINT RightForeArm
				{
					OFFSET -5.241900 -0.000000 -0.000000 
					CHANNELS 3 Zrotation Yrotation Xrotation
					JOINT RightHand
					{
						OFFSET -3.444170 -0.000000 -0.000000 
						CHANNELS 3 Zrotation Yrotation Xrotation
						JOINT RightHandIndex1
						{
							OFFSET -0.622530 -0.000000 -0.000000 
							CHANNELS 3 Zrotation Yrotation Xrotation
							End Site
							{
								OFFSET 0.000000 0.000000 0.000000 
							}
						}
					}
				}
			}
		}
	}
}
MOTION
Frames: 7
Frame Time: 0.041667
7.475200 0.727200 26.597900 174.604000 -38.867200 79.398900 -15.047400 -5.515900 23.834100 0.000000 0.000000 0.000000 3.042400 -6.766900 35.815400 0.019500 0.901000 2.476300 -15.429500 2.504700 -67.366800 -36.404900 -11.601100 145.664900 -1.209300 11.216300 27.585900 -4.917200 -13.289900 40.463700 -2.450100 2.729200 1.155400 -9.669800 0.705700 -9.528200 -21.501000 29.845100 19.573100 -5.600500 11.750300 15.728500 -50.174300 8.776800 82.331000 20.457100 -31.189100 -5.766200 0.000000 0.000000 -52.578100 -7.125000 0.000000 0.000000 72.389900 -17.486400 25.611200 -11.087300 18.421900 -1.803400 0.000000 0.000000 11.481300 7.125000 0.000000 0.000000 
7.476300 0.725800 26.606800 174.680000 -38.754500 79.264400 -14.972400 -5.570500 23.924700 0.000000 0.000000 0.000000 3.026800 -6.701200 35.701300 0.020900 0.933900 2.566900 -16.155300 1.326500 -67.280600 -36.497900 -11.466600 146.129800 -1.072600 12.241000 27.480200 -4.826000 -13.185200 40.065600 -2.361000 2.703400 1.203300 -9.621500 0.693900 -9.514700 -21.522600 29.899700 19.546800 -5.571400 11.752100 15.717000 -50.328100 8.726100 82.295800 20.441100 -31.170100 -5.757900 0.000000 0.000000 -52.585500 -7.125000 0.000000 0.000000 72.259100 -17.403900 25.629300 -11.062400 18.383800 -1.795500 0.000000 0.000000 11.455900 7.125000 0.000000 0.000000 
7.478300 0.725300 26.615700 174.770000 -38.639700 79.133100 -14.889600 -5.640000 24.011800 0.000000 0.000000 0.000000 3.010400 -6.669600 35.599500 0.019600 0.904700 2.486700 -16.874100 0.122100 -67.098300 -36.572400 -11.357000 146.506300 -0.945600 13.194700 27.429100 -4.757700 -13.105700 39.765400 -2.358300 2.699800 1.266100 -9.726100 0.690300 -9.451300 -21.557100 29.899200 19.548000 -5.573900 11.738600 15.752600 -50.257600 8.577000 82.441300 20.471600 -31.206400 -5.773700 0.000000 0.000000 -52.687500 -7.125000 0.000000 0.000000 72.332300 -17.358700 25.500200 -11.058700 18.378200 -1.794400 0.000000 0.000000 11.481800 7.125000 0.000000 0.000000 
7.478400 0.724300 26.621000 174.886000 -38.565100 78.960600 -14.860000 -5.716500 24.116600 0.000000 0.000000 0.000000 3.014000 -6.614400 35.591400 0.023600 0.991500 2.725300 -17.390700 -0.822500 -66.573800 -36.599100 -11.317400 146.642200 -0.820400 14.011200 27.299600 -4.732300 -13.075900 39.653100 -2.329900 2.670200 1.306900 -9.750200 0.673200 -9.448900 -21.647100 29.909100 19.460700 -5.605800 11.739000 15.729600 -50.272300 8.508000 82.468800 20.478100 -31.214100 -5.777100 0.000000 0.000000 -52.613900 -7.125000 0.000000 0.000000 72.321400 -17.358400 25.421600 -11.062700 18.384300 -1.795600 0.000000 0.000000 11.523600 7.125000 0.000000 0.000000 
7.479000 0.723400 26.627300 174.985000 -38.475500 78.806900 -14.809900 -5.785800 24.214900 0.000000 0.000000 0.000000 3.010800 -6.561900 35.548400 0.026200 1.045500 2.874000 -18.031400 -1.877500 -66.156400 -36.641900 -11.253300 146.861100 -0.679500 14.920900 27.185200 -4.682100 -13.016600 39.430800 -2.299200 2.650100 1.354200 -9.783500 0.661700 -9.428300 -21.712900 29.923400 19.405900 -5.621700 11.736500 15.725100 -50.283200 8.419700 82.525900 20.489100 -31.227100 -5.782800 0.000000 0.000000 -52.604600 -7.125000 0.000000 0.000000 72.314300 -17.335700 25.348600 -11.059800 18.379800 -1.794700 0.000000 0.000000 11.546600 7.125000 0.000000 0.000000 
7.479200 0.722600 26.632900 175.085000 -38.391600 78.650800 -14.765500 -5.854000 24.315600 0.000000 0.000000 0.000000 3.011000 -6.506100 35.521800 0.029800 1.115300 3.066000 -18.647600 -2.869000 -65.656600 -36.672900 -11.206600 147.020300 -0.532400 15.812900 27.047000 -4.633000 -12.958200 39.212100 -2.269900 2.630700 1.399600 -9.814500 0.650500 -9.411200 -21.784600 29.936700 19.344200 -5.642300 11.735700 15.718200 -50.289300 8.333900 82.589700 20.501900 -31.242300 -5.789400 0.000000 0.000000 -52.591300 -7.125000 0.000000 0.000000 72.307600 -17.321500 25.277700 -11.058100 18.377300 -1.794200 0.000000 0.000000 11.569300 7.125000 0.000000 0.000000 
7.479000 0.721900 26.637600 175.183000 -38.313000 78.493000 -14.726100 -5.918900 24.419300 0.000000 0.000000 0.000000 3.014500 -6.444000 35.510100 0.034800 1.203800 3.309800 -19.233200 -3.783300 -65.075700 -36.692800 -11.176400 147.122800 -0.375300 16.698400 26.867200 -4.580300 -12.895000 38.976500 -2.237200 2.611900 1.442800 -9.835000 0.639700 -9.399400 -21.857600 29.952200 19.277700 -5.664200 11.737200 15.707700 -50.302000 8.254400 82.655700 20.514800 -31.257600 -5.796100 0.000000 0.000000 -52.578700 -7.125000 0.000000 0.000000 72.290300 -17.312600 25.218500 -11.056000 18.374100 -1.793500 0.000000 0.000000 11.586600 7.125000 0.000000 0.000000 
